<svg xmlns="http://www.w3.org/2000/svg" width="500" height="200" viewBox="0 0 500 200"><g transform="translate(137,48)translate(90.5,26)rotate(0)translate(-90.5,-26)" opacity="1"><path transform="translate(6,0)rotate(0)" d="M32.55 7.64L32.55 7.64L32.55 15.79L32.55 15.79Q32.55 18.18 30.83 19.90L30.83 19.90L30.83 19.90Q29.11 21.63 26.67 21.63L26.67 21.63L25.03 21.63L32.55 30.57L32.55 32L26.50 32L17.77 21.63L7.98 21.63L7.85 21.63L7.85 32L2.31 32L2.31 1.80L26.67 1.80L26.67 1.80Q29.11 1.80 30.83 3.52L30.83 3.52L30.83 3.52Q32.55 5.25 32.55 7.64ZM8.15 16.08L8.15 16.08L26.67 16.08L26.67 16.08Q26.96 16.08 26.96 15.79L26.96 15.79L26.96 7.64L26.96 7.64Q26.96 7.35 26.67 7.35L26.67 7.35L8.15 7.35L8.15 7.35Q7.85 7.35 7.85 7.64L7.85 7.64L7.85 15.79L7.85 15.79Q7.85 16.08 8.15 16.08ZM37.09 1.76L64.89 1.76L64.89 7.30L42.67 7.30L42.67 14.11L60.56 14.11L60.56 19.65L42.67 19.65L42.67 26.46L64.89 26.46L64.89 32L37.09 32L37.09 1.76ZM75.10 1.76L75.10 1.76L93.62 1.76L93.62 1.76Q96.05 1.76 97.78 3.46L97.78 3.46L97.78 3.46Q99.50 5.16 99.50 7.60L99.50 7.60L99.50 32L93.91 32L93.91 21.84L74.80 21.84L74.80 32L69.26 32L69.26 7.60L69.26 7.60Q69.26 5.16 70.96 3.46L70.96 3.46L70.96 3.46Q72.66 1.76 75.10 1.76ZM74.80 7.60L74.80 16.29L93.91 16.29L93.91 7.60L93.91 7.60Q93.91 7.30 93.62 7.30L93.62 7.30L75.10 7.30L75.10 7.30Q74.80 7.30 74.80 7.60L74.80 7.60ZM134.44 1.76L134.44 7.30L110.12 7.30L110.12 7.30Q109.83 7.30 109.83 7.60L109.83 7.60L109.83 26.16L109.83 26.16Q109.83 26.46 110.12 26.46L110.12 26.46L134.44 26.46L134.44 32L110.12 32L110.12 32Q107.69 32 105.99 30.30L105.99 30.30L105.99 30.30Q104.29 28.60 104.29 26.16L104.29 26.16L104.29 7.60L104.29 7.60Q104.29 5.16 105.99 3.46L105.99 3.46L105.99 3.46Q107.69 1.76 110.12 1.76L110.12 1.76L134.44 1.76ZM137.30 7.30L137.30 1.76L167.54 1.76L167.54 7.30L155.23 7.30L155.23 32L149.65 32L149.65 7.30L137.30 7.30Z" fill="#212121"/></g><g transform="translate(137,100)translate(168,26)rotate(0)translate(-168,-26)" opacity="1"><path transform="translate(6,0)rotate(0)" d="M26.92 26.16L26.92 26.16L26.92 1.76L32.51 1.76L32.51 26.16L32.51 26.16Q32.51 28.60 30.79 30.30L30.79 30.30L30.79 30.30Q29.06 32 26.67 32L26.67 32L8.11 32L8.11 32Q5.67 32 3.97 30.30L3.97 30.30L3.97 30.30Q2.27 28.60 2.27 26.16L2.27 26.16L2.27 1.76L7.81 1.76L7.81 26.16L7.81 26.16Q7.81 26.46 8.11 26.46L8.11 26.46L26.67 26.46L26.67 26.46Q26.92 26.46 26.92 26.16ZM47.38 1.76L65.98 23.94L65.98 1.76L71.57 1.76L71.57 32L65.52 32L46.87 9.82L46.87 32L41.33 32L41.33 1.76L47.38 1.76ZM86.06 32L80.51 32L80.51 1.76L86.06 1.76L86.06 32ZM99.46 1.76L113.02 25.28L126.55 1.76L132.97 1.76L115.50 32L110.50 32L93.03 1.76L99.46 1.76ZM140.32 1.76L168.13 1.76L168.13 7.30L145.91 7.30L145.91 14.11L163.80 14.11L163.80 19.65L145.91 19.65L145.91 26.46L168.13 26.46L168.13 32L140.32 32L140.32 1.76ZM206.81 7.64L206.81 7.64L206.81 15.79L206.81 15.79Q206.81 18.18 205.09 19.90L205.09 19.90L205.09 19.90Q203.36 21.63 200.93 21.63L200.93 21.63L199.29 21.63L206.81 30.57L206.81 32L200.76 32L192.02 21.63L182.24 21.63L182.11 21.63L182.11 32L176.57 32L176.57 1.80L200.93 1.80L200.93 1.80Q203.36 1.80 205.09 3.52L205.09 3.52L205.09 3.52Q206.81 5.25 206.81 7.64ZM182.41 16.08L182.41 16.08L200.93 16.08L200.93 16.08Q201.22 16.08 201.22 15.79L201.22 15.79L201.22 7.64L201.22 7.64Q201.22 7.35 200.93 7.35L200.93 7.35L182.41 7.35L182.41 7.35Q182.11 7.35 182.11 7.64L182.11 7.64L182.11 15.79L182.11 15.79Q182.11 16.08 182.41 16.08ZM245.49 7.60L245.49 7.60L245.49 9.91L239.90 9.91L239.90 7.60L239.90 7.60Q239.90 7.30 239.65 7.30L239.65 7.30L221.09 7.30L221.09 7.30Q220.79 7.30 220.79 7.60L220.79 7.60L220.79 13.81L220.79 13.81Q220.79 14.11 221.09 14.11L221.09 14.11L239.65 14.11L239.65 14.11Q242.05 14.11 243.77 15.81L243.77 15.81L243.77 15.81Q245.49 17.51 245.49 19.95L245.49 19.95L245.49 26.16L245.49 26.16Q245.49 28.60 243.77 30.30L243.77 30.30L243.77 30.30Q242.05 32 239.65 32L239.65 32L221.09 32L221.09 32Q218.65 32 216.95 30.30L216.95 30.30L216.95 30.30Q215.25 28.60 215.25 26.16L215.25 26.16L215.25 23.85L220.79 23.85L220.79 26.16L220.79 26.16Q220.79 26.46 221.09 26.46L221.09 26.46L239.65 26.46L239.65 26.46Q239.90 26.46 239.90 26.16L239.90 26.16L239.90 19.95L239.90 19.95Q239.90 19.65 239.65 19.65L239.65 19.65L221.09 19.65L221.09 19.65Q218.65 19.65 216.95 17.95L216.95 17.95L216.95 17.95Q215.25 16.25 215.25 13.81L215.25 13.81L215.25 7.60L215.25 7.60Q215.25 5.16 216.95 3.46L216.95 3.46L216.95 3.46Q218.65 1.76 221.09 1.76L221.09 1.76L239.65 1.76L239.65 1.76Q242.05 1.76 243.77 3.46L243.77 3.46L243.77 3.46Q245.49 5.16 245.49 7.60ZM260.11 1.76L260.11 1.76L278.63 1.76L278.63 1.76Q281.06 1.76 282.79 3.46L282.79 3.46L282.79 3.46Q284.51 5.16 284.51 7.60L284.51 7.60L284.51 32L278.92 32L278.92 21.84L259.81 21.84L259.81 32L254.27 32L254.27 7.60L254.27 7.60Q254.27 5.16 255.97 3.46L255.97 3.46L255.97 3.46Q257.67 1.76 260.11 1.76ZM259.81 7.60L259.81 16.29L278.92 16.29L278.92 7.60L278.92 7.60Q278.92 7.30 278.63 7.30L278.63 7.30L260.11 7.30L260.11 7.30Q259.81 7.30 259.81 7.60L259.81 7.60ZM323.78 32L293.54 32L293.54 1.72L299.08 1.72L299.08 26.46L323.78 26.46L323.78 32Z" fill="#145598"/></g><g transform="translate(27,40)translate(45.5,60)rotate(0)translate(-45.5,-60) scale(1.0511481772397542,1.0511481772397542)" opacity="1"><defs class="defs"/><path fill="#145598" d="M85.253,43.2c-4.627-9.466-4.521-19.018-0.082-28.527c0.93-1.991,1.646-3.983,1.229-6.194&#10;&#9;c-0.787-4.167-3.143-7.044-7.294-8.13c-3.92-1.024-7.283,0.237-9.76,3.346c-2.723,3.418-2.919,7.136-0.993,11.143&#10;&#9;c6.676,13.888,5.097,33.429-16.306,41.465c-2.324,0.873-3.14,0.264-3.339-1.949c-0.623-6.909-0.638-13.698,2.813-20.076&#10;&#9;c2.553-4.72,1.537-9.669-2.316-12.721c-3.447-2.73-8.135-2.769-11.641-0.095c-3.983,3.038-5.031,7.797-2.563,12.677&#10;&#9;c2.288,4.524,3.142,9.312,3.201,15.326c-0.135,1.235-0.372,3.474-0.623,5.711c-0.148,1.323-0.795,2.008-2.162,1.457&#10;&#9;c-7.838-3.159-15.087-7.227-18.357-15.556c-3.437-8.751-3.289-17.625,0.895-26.21c2.807-5.759,0.63-12.042-5.009-14.12&#10;&#9;C9.328-0.585,5.301,0.404,2.641,3.28c-2.858,3.09-3.364,7.234-1.405,11.358c4.519,9.514,4.545,19.079,0.001,28.546&#10;&#9;C-2.235,50.421,1.898,57.31,9.955,58.1c22.285,2.184,34.734,21.18,25.02,43.098c-2.129,4.804-1.457,9.471,2.273,12.513&#10;&#9;c3.541,2.889,8.311,2.947,11.888,0.146c3.883-3.04,4.921-7.993,2.413-12.702c-3.567-6.698-3.947-13.833-2.543-20.992&#10;&#9;c2.345-11.951,14.469-21.45,27.593-22.122C84.796,57.62,88.854,50.567,85.253,43.2z" class="color c1"/></g></svg>