<?xml version="1.0" encoding="utf-8"?>
<!-- Generator: Adobe Illustrator 23.0.6, SVG Export Plug-In . SVG Version: 6.00 Build 0)  -->
<svg version="1.1" id="Layer_1" xmlns="http://www.w3.org/2000/svg" xmlns:xlink="http://www.w3.org/1999/xlink" x="0px" y="0px"
	 viewBox="0 0 400 400" style="enable-background:new 0 0 400 400;" xml:space="preserve">
<style type="text/css">
	.st0{fill:#FFFFFF;}
	.st1{fill:#145598;}
</style>
<rect x="0" class="st0" width="400" height="400"/>
<g transform="translate(27,40)translate(45.5,60)rotate(0)translate(-45.5,-60) scale(1.0511481772397542,1.0511481772397542)">
	<path class="st1" d="M273.8,113.8c-12-24.6-11.8-49.5-0.2-74.2c2.4-5.2,4.3-10.4,3.2-16.1c-2-10.8-8.2-18.3-19-21.2
		C247.6-0.3,238.8,3,232.4,11c-7.1,8.9-7.6,18.6-2.6,29c17.4,36.1,13.3,87-42.4,107.9c-6,2.3-8.2,0.7-8.7-5.1
		c-1.6-18-1.7-35.6,7.3-52.2c6.6-12.3,4-25.2-6-33.1c-9-7.1-21.2-7.2-30.3-0.2c-10.4,7.9-13.1,20.3-6.7,33c6,11.8,8.2,24.2,8.3,39.9
		c-0.4,3.2-1,9-1.6,14.9c-0.4,3.4-2.1,5.2-5.6,3.8c-20.4-8.2-39.3-18.8-47.8-40.5c-8.9-22.8-8.6-45.9,2.3-68.2
		c7.3-15,1.6-31.3-13-36.7C76.2-0.1,65.8,2.5,58.8,10c-7.4,8-8.8,18.8-3.7,29.5c11.8,24.8,11.8,49.6,0,74.3
		c-9,18.8,1.7,36.8,22.7,38.8c58,5.7,90.4,55.1,65.1,112.1c-5.5,12.5-3.8,24.6,5.9,32.6c9.2,7.5,21.6,7.7,30.9,0.4
		c10.1-7.9,12.8-20.8,6.3-33c-9.3-17.4-10.3-36-6.6-54.6c6.1-31.1,37.6-55.8,71.8-57.6C272.6,151.3,283.1,133,273.8,113.8z"/>
</g>
</svg>
