<?xml version="1.0" encoding="utf-8"?>
<!-- Generator: Adobe Illustrator 23.0.6, SVG Export Plug-In . SVG Version: 6.00 Build 0)  -->
<svg version="1.1" id="Layer_1" xmlns="http://www.w3.org/2000/svg" xmlns:xlink="http://www.w3.org/1999/xlink" x="0px" y="0px"
	 viewBox="0 0 91 121.8" style="enable-background:new 0 0 91 121.8;" xml:space="preserve">
<style type="text/css">
	.st0{fill:#145598;}
</style>
<g transform="translate(27,40)translate(45.5,60)rotate(0)translate(-45.5,-60) scale(1.0511481772397542,1.0511481772397542)">
	<path class="st0" d="M59.6,5.1c-4.6-9.5-4.5-19-0.1-28.5c0.9-2,1.6-4,1.2-6.2c-0.8-4.2-3.1-7-7.3-8.1c-3.9-1-7.3,0.2-9.8,3.3
		c-2.7,3.4-2.9,7.1-1,11.1c6.7,13.9,5.1,33.4-16.3,41.5c-2.3,0.9-3.1,0.3-3.3-1.9c-0.6-6.9-0.6-13.7,2.8-20.1
		c2.6-4.7,1.5-9.7-2.3-12.7c-3.4-2.7-8.1-2.8-11.6-0.1c-4,3-5,7.8-2.6,12.7c2.3,4.5,3.1,9.3,3.2,15.3c-0.1,1.2-0.4,3.5-0.6,5.7
		c-0.1,1.3-0.8,2-2.2,1.5C1.9,15.4-5.4,11.4-8.6,3c-3.4-8.8-3.3-17.6,0.9-26.2c2.8-5.8,0.6-12-5-14.1c-3.6-1.3-7.6-0.3-10.3,2.5
		c-2.9,3.1-3.4,7.2-1.4,11.4c4.5,9.5,4.5,19.1,0,28.5c-3.5,7.2,0.7,14.1,8.7,14.9C6.6,22.2,19,41.2,9.3,63.1
		c-2.1,4.8-1.5,9.5,2.3,12.5c3.5,2.9,8.3,2.9,11.9,0.1c3.9-3,4.9-8,2.4-12.7c-3.6-6.7-3.9-13.8-2.5-21c2.3-12,14.5-21.5,27.6-22.1
		C59.1,19.6,63.2,12.5,59.6,5.1z"/>
</g>
</svg>
